<svg width="43" height="41" viewBox="0 0 43 41" fill="none" xmlns="http://www.w3.org/2000/svg">
<rect x="14.8151" y="11.5" width="18.2877" height="20.2329" rx="2.5" fill="white" stroke="black"/>
<path d="M11.5 17.7671C11.5 16.3864 12.6193 15.2671 14 15.2671H27.2877C28.6684 15.2671 29.7877 16.3864 29.7877 17.7671V33C29.7877 34.3807 28.6684 35.5 27.2877 35.5H14C12.6193 35.5 11.5 34.3807 11.5 33V17.7671Z" fill="white" stroke="black"/>
<path d="M42 35.6667C42 36.8159 41.568 37.9181 40.7991 38.7308C40.0302 39.5435 38.9874 40 37.9 40H5.1C4.01261 40 2.96976 39.5435 2.20086 38.7308C1.43196 37.9181 1 36.8159 1 35.6667V5.33333C1 4.18406 1.43196 3.08186 2.20086 2.2692C2.96976 1.45655 4.01261 1 5.1 1H15.35L19.45 7.5H37.9C38.9874 7.5 40.0302 7.95655 40.7991 8.7692C41.568 9.58186 42 10.6841 42 11.8333V35.6667Z" stroke="black" stroke-width="2" stroke-linecap="round" stroke-linejoin="round"/>
</svg>
