<!-- Generated by IcoMoon.io -->
<svg version="1.1" xmlns="http://www.w3.org/2000/svg" width="32" height="32" viewBox="0 0 32 32">
<title>notebook2</title>
<path d="M7 19h-1v-1h1v-3h-1v-1h1v-3h-1v-1h1v-3h-1v-1h1v-0.993c0-1.109 0.894-2.007 1.997-2.007h15.005c1.107 0 1.997 0.899 1.997 2.007v22.985c0 1.109-0.894 2.007-1.997 2.007h-15.005c-1.107 0-1.997-0.899-1.997-2.007v-0.993h-1v-1h1v-3h-1v-1h1v-3zM8 19v3h1v1h-1v3h1v1h-1v1.005c0 0.55 0.455 0.995 1 0.995h15c0.552 0 1-0.455 1-0.995v-23.009c0-0.55-0.455-0.995-1-0.995h-15c-0.552 0-1 0.455-1 0.995v1.005h1v1h-1v3h1v1h-1v3h1v1h-1v3h1v1h-1zM11 8v1h11v-1h-11zM12 12v1h9v-1h-9z"></path>
</svg>
