<!-- Generated by IcoMoon.io -->
<svg version="1.1" xmlns="http://www.w3.org/2000/svg" width="32" height="32" viewBox="0 0 32 32">
<title>notebook1</title>
<path d="M5 18h2v1h-2v-1z"></path>
<path d="M5 14h2v1h-2v-1z"></path>
<path d="M5 22h2v1h-2v-1z"></path>
<path d="M5 26h2v1h-2v-1z"></path>
<path d="M5 10h2v1h-2v-1z"></path>
<path d="M5 6h2v1h-2v-1z"></path>
<path d="M24.003 3h-15.006c-1.103 0-1.997 0.897-1.997 2.006v0.994h2v1h-2v3h2v1h-2v3h2v1h-2v3h2v1h-2v3h2v1h-2v3h2v1h-2v0.994c0 1.109 0.891 2.006 1.997 2.006h15.006c1.103 0 1.997-0.897 1.997-2.006v-22.988c0-1.106-0.891-2.006-1.997-2.006zM21 13h-9v-1h9v1zM22 9h-11v-1h11v1z"></path>
</svg>
