<svg width="19" height="26" viewBox="0 0 19 26" fill="none" xmlns="http://www.w3.org/2000/svg">
<path d="M15 1V0H16V1H17.003C18.11 1 19 1.897 19 3.004V23.997C19 25.111 18.106 26.001 17.003 26.001H1.99801C0.891007 26.001 0.00100708 25.104 0.00100708 23.997V3.004C0.00100708 1.89 0.895007 1 1.99801 1H3.00101V0H4.00101V1H7.00101V0H8.00101V1H11.001V0H12.001V1H15.001H15ZM15 2H12V3H11V2H8.00001V3H7.00001V2H4.00001V3H3.00001V2H2.00001C1.44801 2 1.00001 2.439 1.00001 3.003V23.997C1.00001 24.551 1.45501 25 2.00001 25H17C17.552 25 18 24.561 18 23.997V3.003C18 2.449 17.545 2 17 2H16V3H15V2Z" fill="black"/>
</svg>
