<svg width="19" height="26" viewBox="0 0 19 26" fill="none" xmlns="http://www.w3.org/2000/svg">
<path d="M15 1V0H16V1H17.003C18.11 1 19 1.897 19 3.004V23.997C19 25.111 18.106 26.001 17.003 26.001H1.99798C0.890977 26.001 0.000976562 25.104 0.000976562 23.997V3.004C0.000976562 1.89 0.894977 1 1.99798 1H3.00098V0H4.00098V1H7.00098V0H8.00098V1H11.001V0H12.001V1H15.001H15ZM15 2H12V3H11V2H7.99998V3H6.99998V2H3.99998V3H2.99998V2H1.99998C1.44798 2 0.999977 2.439 0.999977 3.003V23.997C0.999977 24.551 1.45498 25 1.99998 25H17C17.552 25 18 24.561 18 23.997V3.003C18 2.449 17.545 2 17 2H16V3H15V2Z" fill="black"/>
<path d="M9.17498 9V20M2.99998 13.8889H16" stroke="black"/>
</svg>
