
<svg width="65" height="61" viewBox="0 0 65 61" xmlns="http://www.w3.org/2000/svg"><path fill-rule="evenodd" clip-rule="evenodd" d="M65 30.5C65 47.345 50.45 61 32.5 61S0 47.345 0 30.5 14.55 0 32.5 0 65 13.655 65 30.5zm-2.191 0c0 15.525-13.449 28.321-30.309 28.321a32.4 32.4 0 01-7.895-.967l5.501-11.318c1.865-3.837 3.239-7.198 3.262-10.936.024-3.755-1.309-7.69-4.395-12.761l-.049-.08-.06-.073c-1.69-2.071-2.466-2.884-3.225-3.623l-.338-.327a43.51 43.51 0 01-2.547-2.643.622.622 0 01-.132-.196.077.077 0 01-.005-.042c.005-.04.049-.218.346-.537.612-.66 1.836-1.43 3.537-2.181 3.36-1.482 7.825-2.566 10.657-2.67a10.722 10.722 0 016.674 2.007 9.714 9.714 0 011.694 1.54 19.415 19.415 0 00-2.108.288c-.616.12-1.314.292-1.967.54-.629.24-1.348.6-1.883 1.16-.98 1.03-1.216 2.36-1.245 3.307-.028.943.14 1.814.291 2.207.081.21.204.397.272.495.087.128.19.264.301.4.221.271.506.585.82.878.302.283.686.6 1.107.83.31.169.987.484 1.752.29a2.4 2.4 0 00.334-.088c.195-.065.38-.152.541-.238a8.256 8.256 0 001.023-.661c.699-.52 1.502-1.232 2.247-2.031.742-.795 1.473-1.726 1.984-2.69.494-.93.892-2.099.635-3.257-.399-1.79-1.894-3.795-3.985-5.299A13.646 13.646 0 0037.152 7.6c-3.29.12-8.14 1.32-11.793 2.932-1.804.795-3.507 1.773-4.56 2.908-.535.576-1.006 1.306-1.115 2.167-.116.916.207 1.744.813 2.418 1.345 1.496 2.066 2.19 2.683 2.784l.33.318c.657.64 1.353 1.36 2.954 3.319 2.919 4.814 3.968 8.22 3.95 11.24-.02 3.053-1.128 5.908-2.972 9.703l-5.648 11.62C10.29 52.95 2.191 42.546 2.191 30.5 2.191 14.976 15.64 2.179 32.5 2.179S62.809 14.975 62.809 30.5zm-20.56-9.124l-.034-.002a6.178 6.178 0 01-.84-.902 4.582 4.582 0 01-.092-1.067c.02-.652.184-1.16.466-1.456.096-.102.339-.267.797-.441.435-.166.95-.298 1.468-.399a16.323 16.323 0 011.877-.25h.013l.747-.023a4.088 4.088 0 01-.274.623c-.347.655-.893 1.37-1.525 2.047a14.214 14.214 0 01-1.83 1.658c-.088.066-.17.124-.245.175a2.122 2.122 0 01-.528.037zm-.92-.975l.002.003-.003-.003z" fill="#000"/></svg>